<?xml version="1.0" encoding="UTF-8" standalone="no"?>
<svg xmlns="http://www.w3.org/2000/svg" 
version="1.1"
xmlns:xlink="http://www.w3.org/1999/xlink" 
xmlns:svgjs="http://svgjs.dev/svgjs"
 width="308.7612359841165" 
 height="304.7612359841165" 
 viewBox="0 0 106.00782394174519 104.68749999999999">
 <rect width="308.76587475648" 
 height="304.7365793647" 
 fill="#fa0505">
 </rect>
 <g transform="matrix(0.6666666666666666,0,0,0.6666666666666666,247.52849191624705,9.619354838709626)">
 <svg viewBox="0 0 168 248" data-background-color="#fa0505" preserveAspectRatio="xMidYMid meet" height="304.7612359841165"
  width="308.7612359841165"
  xmlns="http://www.w3.org/2000/svg"
  xmlns:xlink="http://www.w3.org/1999/xlink">
 <g id="tight-bounds" transform="matrix(1,0,0,1,0.41521335807050264,0.4000000000000057)">
<svg viewBox="0 0 167.169573283859 247.2" height="247.2" width="167.169573283859">
<g><svg viewBox="0 0 167.169573283859 247.2" height="247.2" width="167.169573283859"><g>
<svg viewBox="0 0 167.169573283859 247.2" height="247.2" width="167.169573283859">
<g id="textblocktransform">
<svg viewBox="0 0 167.169573283859 247.2" height="247.2" width="167.169573283859" id="textblock">
<g>
<svg viewBox="0 0 167.169573283859 247.2" height="247.2" width="167.169573283859">
<g transform="matrix(1,0,0,1,0,0)">
<svg width="167.169573283859" viewBox="3 -25.61 17.8 26.32" height="247.2" data-palette-color="#f4f2ef">
<path d="M3-8.25L4.25-8.25 6.86-2.71Q7.18-2.51 7.64-2.36 8.11-2.2 8.64-2.08 9.18-1.95 9.74-1.88 10.3-1.81 
10.84-1.81L10.84-1.81Q12.08-1.81 13.1-2.06 14.11-2.32 14.84-2.8 15.58-3.27 15.97-3.97 16.36-4.66 16.36-5.54L16.36-5.54Q16.36-6.69
 15.42-7.73 14.48-8.76 12.77-9.74L12.77-9.74 10.16-11.21Q8.76-11.94 7.56-12.72 6.35-13.5 5.44-14.43 4.54-15.36 4.02-16.48
 3.49-17.6 3.49-18.99L3.49-18.99Q3.49-20.68 4.15-21.92 4.81-23.17 6.03-23.99 7.25-24.8 8.97-25.21 
 10.69-25.61 12.79-25.61L12.79-25.61Q16.02-25.61 19.24-24.56L19.24-24.56 19.14-17.5 18.14-17.5 15.55-23.24Q14.62-23.36
  13.95-23.44 13.28-23.51 12.84-23.51L12.84-23.51Q11.52-23.51 10.56-23.21 9.59-22.9 8.97-22.4 8.35-21.9 8.04-21.26 
  7.74-20.63 7.74-19.95L7.74-19.95Q7.74-19.14 8.04-18.49 8.35-17.85 8.95-17.26 9.55-16.67 10.45-16.1 11.35-15.53
   12.55-14.89L12.55-14.89Q14.26-13.96 15.37-13.38 16.48-12.79 16.97-12.45L16.97-12.45Q20.8-9.89 20.8-6.54L20.8-6.54Q20.8-4.74
    19.93-3.38 19.07-2.03 17.66-1.11 16.26-0.2 14.5 0.26 12.74 0.71 10.96 0.71L10.96 0.71Q10.03 0.71 8.96 0.59
     7.89 0.46 6.81 0.24 5.74 0.02 4.75-0.28 3.76-0.59 3-0.95L3-0.95 3-8.25Z" opacity="1" transform="matrix(1,0,0,1,0,0)" 
     fill="#f4f2ef" 
      class="wordmark-text-0" 
      data-fill-palette-color="primary"
       id="text-0">
       </path>
       </svg>
       </g>
       </svg>
     </g> 
     </svg>
     </g>
     </svg>
     </g>
     </svg>
     </g>
     <defs>
     </defs>
     </svg>
     <rect width="167.169573283859" 
  height="247.2"
 fill="none"
  stroke="none"
   visibility="hidden">
   </rect>
   </g>
   </svg>
   </g>
   </svg>